<svg width="726" height="319" viewBox="0 0 726 319" fill="none" xmlns="http://www.w3.org/2000/svg">
<path d="M39.8701 245.3L34.6401 257.61H29.3501L49.3701 212.16L68.8701 257.61H63.5201L58.4001 245.3H39.8701ZM49.2501 223.44L41.8301 240.81H56.5001L49.2501 223.44Z" fill="#5C5D60"/>
<path d="M80.31 211.76L96.07 248.17L111.89 211.76L120.69 257.61H115.74L110.16 228.27H110.04L96.06 259.39L82.14 228.27H82.03L76.45 257.61H71.5L80.31 211.76Z" fill="#5C5D60"/>
<path d="M127.31 214.23H149.8V218.72H132.14V231.61H149.28V236.1H132.14V253.13H149.8V257.62H127.31V214.23V214.23Z" fill="#5C5D60"/>
<path d="M163.95 257.61H159.12V214.24H165.39C173.62 214.24 181.27 216.43 181.27 226.2C181.27 232.87 177.07 237.59 170.4 238.17L184.21 257.61H178.28L165.16 238.57H163.95V257.61V257.61ZM163.95 234.31H165.45C170.91 234.31 176.44 233.27 176.44 226.54C176.44 219.41 171.21 218.72 165.4 218.72H163.96V234.31H163.95Z" fill="#5C5D60"/>
<path d="M196.34 257.61H191.51V214.24H196.34V257.61Z" fill="#5C5D60"/>
<path d="M239.31 223.73C235.86 220.16 231.08 217.98 226.08 217.98C216.42 217.98 208.59 226.38 208.59 235.93C208.59 245.48 216.47 253.88 226.19 253.88C231.08 253.88 235.85 251.58 239.31 248.13V254.11C235.57 256.81 230.97 258.37 226.37 258.37C214.12 258.37 203.76 248.42 203.76 236.11C203.76 223.68 213.94 213.5 226.37 213.5C231.2 213.5 235.46 214.88 239.31 217.76V223.73Z" fill="#5C5D60"/>
<path d="M255.07 245.3L249.84 257.61H244.55L264.57 212.16L284.07 257.61H278.72L273.6 245.3H255.07ZM264.45 223.44L257.03 240.81H271.7L264.45 223.44Z" fill="#5C5D60"/>
<path d="M290.16 212.39L323.99 247.83V214.24H328.82V259.57L294.99 224.19V257.61H290.16V212.39Z" fill="#5C5D60"/>
<path d="M377.43 222.69C375.7 219.7 373.63 217.97 369.95 217.97C366.1 217.97 362.76 220.73 362.76 224.7C362.76 228.44 366.61 230.16 369.55 231.49L372.43 232.76C378.07 235.23 382.84 238.05 382.84 244.96C382.84 252.55 376.74 258.36 369.21 258.36C362.25 258.36 357.07 253.87 355.69 247.14L360.41 245.82C361.04 250.25 364.44 253.87 369.1 253.87C373.76 253.87 378.02 250.3 378.02 245.41C378.02 240.35 374.05 238.62 370.02 236.78L367.37 235.63C362.31 233.33 357.94 230.74 357.94 224.53C357.94 217.8 363.64 213.49 370.08 213.49C374.91 213.49 379 215.96 381.3 220.22L377.43 222.69Z" fill="#5C5D60"/>
<path d="M434.44 235.98C434.44 248.46 424.2 258.36 411.83 258.36C399.46 258.36 389.22 248.47 389.22 235.98C389.22 223.55 399.46 213.49 411.83 213.49C424.2 213.49 434.44 223.55 434.44 235.98ZM394.06 235.92C394.06 245.7 402 253.87 411.84 253.87C421.68 253.87 429.62 245.7 429.62 235.92C429.62 226.08 421.8 217.97 411.84 217.97C401.88 217.97 394.06 226.08 394.06 235.92Z" fill="#5C5D60"/>
<path d="M475.57 223.73C472.12 220.16 467.34 217.98 462.34 217.98C452.68 217.98 444.85 226.38 444.85 235.93C444.85 245.48 452.73 253.88 462.45 253.88C467.34 253.88 472.11 251.58 475.57 248.13V254.11C471.83 256.81 467.23 258.37 462.63 258.37C450.38 258.37 440.02 248.42 440.02 236.11C440.02 223.68 450.2 213.5 462.63 213.5C467.46 213.5 471.72 214.88 475.57 217.76V223.73Z" fill="#5C5D60"/>
<path d="M490.18 257.61H485.35V214.24H490.18V257.61Z" fill="#5C5D60"/>
<path d="M500.48 214.23H522.97V218.72H505.31V231.61H522.45V236.1H505.31V253.13H522.97V257.62H500.48V214.23Z" fill="#5C5D60"/>
<path d="M544.2 257.61H539.37V218.72H528.9V214.23H554.79V218.72H544.21V257.61H544.2Z" fill="#5C5D60"/>
<path d="M557.31 214.23H562.89L573.93 233.56L584.97 214.23H590.55L576.34 238.97V257.61H571.51V238.97L557.31 214.23Z" fill="#5C5D60"/>
<path d="M620.88 218.72V231.61H635.32V236.1H620.88V257.61H616.05V214.24H635.78V218.73H620.88V218.72Z" fill="#5C5D60"/>
<path d="M688.07 235.98C688.07 248.46 677.83 258.36 665.46 258.36C653.09 258.36 642.85 248.47 642.85 235.98C642.85 223.55 653.09 213.49 665.46 213.49C677.83 213.49 688.07 223.55 688.07 235.98ZM647.69 235.92C647.69 245.7 655.63 253.87 665.47 253.87C675.31 253.87 683.25 245.7 683.25 235.92C683.25 226.08 675.43 217.97 665.47 217.97C655.51 217.97 647.69 226.08 647.69 235.92Z" fill="#5C5D60"/>
<path d="M700.96 257.61H696.13V214.24H702.4C710.63 214.24 718.28 216.43 718.28 226.2C718.28 232.87 714.08 237.59 707.41 238.17L721.22 257.61H715.3L702.18 238.57H700.97V257.61H700.96ZM700.96 234.31H702.46C707.92 234.31 713.45 233.27 713.45 226.54C713.45 219.41 708.21 218.72 702.41 218.72H700.97V234.31H700.96Z" fill="#5C5D60"/>
<path d="M33.3701 273.1H55.8601V277.59H38.2001V290.48H55.3401V294.97H38.2001V312H55.8601V316.49H33.3701V273.1Z" fill="#5C5D60"/>
<path d="M62.8201 271.26L96.6501 306.7V273.11H101.48V318.44L67.6501 283.06V316.48H62.8201V271.26Z" fill="#5C5D60"/>
<path d="M149.28 294.67C149.4 300.54 148.76 305.37 144.79 309.97C140.82 314.57 134.78 317.22 128.74 317.22C116.54 317.22 106.42 307.09 106.42 294.9C106.42 282.47 116.54 272.35 129.03 272.35C136.62 272.35 142.78 275.74 147.38 281.73L143.87 285.01C140.25 279.89 135.36 276.84 128.97 276.84C119.08 276.84 111.25 285.18 111.25 294.96C111.25 299.56 113.09 303.93 116.31 307.21C119.47 310.37 124.08 312.73 128.62 312.73C136.16 312.73 144.09 307.21 144.09 299.15H131.22V294.66H149.28V294.67Z" fill="#5C5D60"/>
<path d="M159.52 316.47H154.69V273.1H159.52V316.47Z" fill="#5C5D60"/>
<path d="M167.06 271.26L200.89 306.7V273.11H205.72V318.44L171.89 283.06V316.48H167.06V271.26V271.26Z" fill="#5C5D60"/>
<path d="M213.2 273.1H235.69V277.59H218.03V290.48H235.17V294.97H218.03V312H235.69V316.49H213.2V273.1V273.1Z" fill="#5C5D60"/>
<path d="M242.36 273.1H264.85V277.59H247.19V290.48H264.33V294.97H247.19V312H264.85V316.49H242.36V273.1Z" fill="#5C5D60"/>
<path d="M276.36 316.47H271.53V273.1H277.8C286.03 273.1 293.68 275.29 293.68 285.06C293.68 291.73 289.48 296.45 282.81 297.03L296.62 316.47H290.69L277.57 297.43H276.36V316.47ZM276.36 293.17H277.86C283.32 293.17 288.85 292.13 288.85 285.4C288.85 278.27 283.62 277.58 277.81 277.58H276.37V293.17H276.36Z" fill="#5C5D60"/>
<path d="M306.1 316.47H301.27V273.1H306.1V316.47Z" fill="#5C5D60"/>
<path d="M313.64 271.26L347.47 306.7V273.11H352.3V318.44L318.47 283.06V316.48H313.64V271.26Z" fill="#5C5D60"/>
<path d="M400.1 294.67C400.21 300.54 399.58 305.37 395.61 309.97C391.64 314.57 385.6 317.22 379.56 317.22C367.36 317.22 357.24 307.09 357.24 294.9C357.24 282.47 367.36 272.35 379.85 272.35C387.44 272.35 393.6 275.74 398.2 281.73L394.69 285.01C391.07 279.89 386.18 276.84 379.79 276.84C369.9 276.84 362.07 285.18 362.07 294.96C362.07 299.56 363.91 303.93 367.13 307.21C370.29 310.37 374.9 312.73 379.44 312.73C386.98 312.73 394.91 307.21 394.91 299.15H382.02V294.66H400.1V294.67Z" fill="#5C5D60"/>
<path d="M421.55 273.1H444.04V277.59H426.38V290.48H443.52V294.97H426.38V312H444.04V316.49H421.55V273.1Z" fill="#5C5D60"/>
<path d="M450.72 273.1H458.89C465.39 273.1 470.68 273.96 475.8 278.33C480.75 282.59 482.99 288.4 482.99 294.84C482.99 301.17 480.69 306.75 475.91 311.01C470.73 315.61 465.56 316.47 458.77 316.47H450.72V273.1V273.1ZM459.06 311.99C464.35 311.99 468.78 311.24 472.75 307.5C476.32 304.16 478.16 299.62 478.16 294.79C478.16 289.84 476.26 285.07 472.52 281.79C468.55 278.28 464.18 277.59 459.06 277.59H455.55V311.99H459.06Z" fill="#5C5D60"/>
<path d="M492.89 298.93C492.89 302.15 492.77 305.83 494.79 308.59C496.69 311.24 500.37 312.73 503.53 312.73C506.64 312.73 510.03 311.29 512.04 308.88C514.34 306.12 514.17 302.32 514.17 298.93V273.1H519V300.25C519 304.97 518.65 308.71 515.2 312.27C512.21 315.49 507.89 317.22 503.52 317.22C499.44 317.22 495.24 315.67 492.3 312.79C488.5 309.17 488.04 305.2 488.04 300.25V273.1H492.87V298.93H492.89Z" fill="#5C5D60"/>
<path d="M559.1 282.59C555.65 279.02 550.87 276.84 545.87 276.84C536.21 276.84 528.38 285.24 528.38 294.79C528.38 304.34 536.26 312.74 545.98 312.74C550.87 312.74 555.64 310.44 559.1 306.99V312.97C555.36 315.67 550.76 317.23 546.16 317.23C533.91 317.23 523.55 307.28 523.55 294.97C523.55 282.54 533.73 272.36 546.16 272.36C550.99 272.36 555.25 273.74 559.1 276.62V282.59Z" fill="#5C5D60"/>
<path d="M572.21 304.16L566.98 316.47H561.69L581.71 271.02L601.21 316.47H595.86L590.74 304.16H572.21ZM581.59 282.3L574.17 299.67H588.84L581.59 282.3Z" fill="#5C5D60"/>
<path d="M611.28 316.47H606.45V277.58H595.98V273.09H621.87V277.58H611.29V316.47H611.28Z" fill="#5C5D60"/>
<path d="M630.2 316.47H625.37V273.1H630.2V316.47Z" fill="#5C5D60"/>
<path d="M680.48 294.84C680.48 307.32 670.24 317.22 657.87 317.22C645.5 317.22 635.26 307.33 635.26 294.84C635.26 282.42 645.5 272.35 657.87 272.35C670.24 272.35 680.48 282.42 680.48 294.84ZM640.1 294.79C640.1 304.57 648.04 312.74 657.88 312.74C667.72 312.74 675.66 304.57 675.66 294.79C675.66 284.95 667.84 276.84 657.88 276.84C647.92 276.84 640.1 284.95 640.1 294.79Z" fill="#5C5D60"/>
<path d="M685.77 271.26L719.6 306.7V273.11H724.43V318.44L690.61 283.06V316.48H685.78V271.26H685.77Z" fill="#5C5D60"/>
<path d="M238.37 146.75L217.24 193.21H192.41L280.9 0L369.39 193.21H344.56L323.42 146.75H238.37ZM280.9 50.65L247.96 125.62H313.84L280.9 50.65Z" fill="url(#paint0_linear)"/>
<path d="M460.75 43.0199C453.86 31.4699 445.01 25.5699 431.01 25.5699C416.26 25.5699 400.03 35.6399 400.03 51.8699C400.03 66.3699 414.28 73.9899 425.84 78.4199L439.1 83.5799C465.41 93.9099 485.07 108.41 485.07 139.38C485.07 173.05 459.01 197.14 425.84 197.14C395.85 197.14 372.5 175.02 368.56 145.27L391.91 140.36C391.67 160.76 407.88 175.51 427.8 175.51C447.72 175.51 461.97 158.8 461.97 139.38C461.97 119.47 445.99 110.86 430.02 104.23L417.24 98.8199C396.1 89.7299 376.93 77.6799 376.93 51.8699C376.93 21.8799 403.48 3.93994 431.5 3.93994C452.15 3.93994 469.11 14.0199 479.19 31.9599L460.75 43.0199Z" fill="url(#paint1_linear)"/>
<path d="M502.31 7.87012H601.85V29.0101H525.42L524.8 82.2201H599.04V103.35H524.8L525.42 172.07H601.86V193.21H502.32V7.87012H502.31Z" fill="url(#paint2_linear)"/>
<path d="M625.52 7.87012H725.07V29.0101H648.63L648.01 82.2201H722.24V103.35H648.01L648.63 172.07H725.07V193.21H625.52V7.87012Z" fill="url(#paint3_linear)"/>
<path d="M58.7401 89.0601L119.76 130.44L53.5901 162.1L58.7401 89.0601Z" fill="url(#paint4_linear)"/>
<path d="M64.84 16.02L53.59 162.1L0 84.86L64.84 16.02Z" fill="url(#paint5_linear)"/>
<path d="M136.93 51.6401L70.4099 83.4501L76.4699 10.3501L136.93 51.6401Z" fill="url(#paint6_linear)"/>
<path d="M196.92 93.7701L76.47 10.3501L170.19 3.05005L196.92 93.7701Z" fill="url(#paint7_linear)"/>
<path d="M130.07 137.91L135.19 64.3601L195.81 105.67L130.07 137.91Z" fill="url(#paint8_linear)"/>
<path d="M63.8401 169.33L195.81 105.67L155.95 190.81L63.8401 169.33Z" fill="url(#paint9_linear)"/>
<defs>
<linearGradient id="paint0_linear" x1="192.409" y1="96.6105" x2="369.393" y2="96.6105" gradientUnits="userSpaceOnUse">
<stop stop-color="#00A7E2"/>
<stop offset="1" stop-color="#18428F"/>
</linearGradient>
<linearGradient id="paint1_linear" x1="368.572" y1="100.542" x2="485.084" y2="100.542" gradientUnits="userSpaceOnUse">
<stop stop-color="#00A7E2"/>
<stop offset="1" stop-color="#18428F"/>
</linearGradient>
<linearGradient id="paint2_linear" x1="502.314" y1="100.543" x2="601.858" y2="100.543" gradientUnits="userSpaceOnUse">
<stop stop-color="#00A7E2"/>
<stop offset="1" stop-color="#18428F"/>
</linearGradient>
<linearGradient id="paint3_linear" x1="625.523" y1="100.543" x2="725.073" y2="100.543" gradientUnits="userSpaceOnUse">
<stop stop-color="#00A7E2"/>
<stop offset="1" stop-color="#18428F"/>
</linearGradient>
<linearGradient id="paint4_linear" x1="53.5867" y1="125.579" x2="119.762" y2="125.579" gradientUnits="userSpaceOnUse">
<stop stop-color="#00A7E2"/>
<stop offset="1" stop-color="#18428F"/>
</linearGradient>
<linearGradient id="paint5_linear" x1="-0.0023" y1="89.0577" x2="64.8386" y2="89.0577" gradientUnits="userSpaceOnUse">
<stop stop-color="#00A7E2"/>
<stop offset="1" stop-color="#18428F"/>
</linearGradient>
<linearGradient id="paint6_linear" x1="70.4107" y1="46.9008" x2="136.932" y2="46.9008" gradientUnits="userSpaceOnUse">
<stop stop-color="#00A7E2"/>
<stop offset="1" stop-color="#18428F"/>
</linearGradient>
<linearGradient id="paint7_linear" x1="76.4655" y1="48.4066" x2="196.916" y2="48.4066" gradientUnits="userSpaceOnUse">
<stop stop-color="#00A7E2"/>
<stop offset="1" stop-color="#18428F"/>
</linearGradient>
<linearGradient id="paint8_linear" x1="130.065" y1="101.136" x2="195.806" y2="101.136" gradientUnits="userSpaceOnUse">
<stop stop-color="#00A7E2"/>
<stop offset="1" stop-color="#18428F"/>
</linearGradient>
<linearGradient id="paint9_linear" x1="63.845" y1="148.238" x2="195.806" y2="148.238" gradientUnits="userSpaceOnUse">
<stop stop-color="#00A7E2"/>
<stop offset="1" stop-color="#18428F"/>
</linearGradient>
</defs>
</svg>
